<!-- https://svgwave.in/ -->

<svg width="100%" height="100%" id="svg" viewBox="0 0 1440 690" xmlns="http://www.w3.org/2000/svg" class="transition duration-300 ease-in-out delay-150"><defs><linearGradient id="gradient" x1="0%" y1="50%" x2="100%" y2="50%"><stop offset="5%" stop-color="#a69afe"></stop><stop offset="95%" stop-color="#fa8005"></stop></linearGradient></defs><path d="M 0,700 L 0,175 C 88.86124401913872,190.93301435406698 177.72248803827745,206.86602870813397 279,233 C 380.27751196172255,259.13397129186603 493.97129186602876,295.4688995215311 603,261 C 712.0287081339712,226.5311004784689 816.3923444976077,121.25837320574163 917,109 C 1017.6076555023923,96.74162679425837 1114.4593301435407,177.49760765550238 1201,204 C 1287.5406698564593,230.50239234449762 1363.7703349282297,202.7511961722488 1440,175 L 1440,700 L 0,700 Z" stroke="none" stroke-width="0" fill="url(#gradient)" fill-opacity="0.53" class="transition-all duration-300 ease-in-out delay-150 path-0" transform="rotate(-180 720 350)"></path><defs><linearGradient id="gradient" x1="0%" y1="50%" x2="100%" y2="50%"><stop offset="5%" stop-color="#a69afe"></stop><stop offset="95%" stop-color="#fa8005"></stop></linearGradient></defs><path d="M 0,700 L 0,408 C 74.83253588516746,361.9712918660287 149.66507177033492,315.9425837320574 258,330 C 366.3349282296651,344.0574162679426 508.17224880382787,418.20095693779905 613,448 C 717.8277511961721,477.79904306220095 785.645933014354,463.2535885167464 875,467 C 964.354066985646,470.7464114832536 1075.2440191387561,492.78468899521533 1173,486 C 1270.7559808612439,479.21531100478467 1355.377990430622,443.60765550239233 1440,408 L 1440,700 L 0,700 Z" stroke="none" stroke-width="0" fill="url(#gradient)" fill-opacity="1" class="transition-all duration-300 ease-in-out delay-150 path-1" transform="rotate(-180 720 350)"></path></svg>